<svg xmlns="http://www.w3.org/2000/svg" width="512" height="512" viewBox="0 0 512 512">
  <defs>
    <linearGradient id="bg" x1="0" y1="0" x2="1" y2="1">
      <stop offset="0" stop-color="#141d33"/><stop offset="1" stop-color="#0a0d16"/>
    </linearGradient>
    <linearGradient id="ring" x1="0" y1="0" x2="1" y2="1">
      <stop offset="0" stop-color="#f7e2a6"/><stop offset="1" stop-color="#b8892b"/>
    </linearGradient>
    <linearGradient id="flame" x1="0" y1="0" x2="0" y2="1">
      <stop offset="0" stop-color="#ffd76a"/><stop offset="0.55" stop-color="#ff7a1a"/><stop offset="1" stop-color="#ff2e63"/>
    </linearGradient>
  </defs>
  <rect width="512" height="512" rx="112" fill="url(#bg)"/>
  <circle cx="256" cy="256" r="188" fill="none" stroke="url(#ring)" stroke-width="10"/>
  <circle cx="256" cy="256" r="164" fill="none" stroke="url(#ring)" stroke-width="3" opacity="0.45"/>
  <path d="M256 120c18 42-8 60-28 82-20 24-36 47-36 78a64 64 0 0 0 128 2c0-22-11-40-23-56-4 14-13 23-25 26 11-29 8-66-18-93-4-4-8-8-13-16z" fill="url(#flame)"/>
  <text x="256" y="452" text-anchor="middle" font-family="Georgia, 'Times New Roman', serif" font-weight="700" font-size="46" letter-spacing="6" fill="#e9c46a">FF</text>
</svg>
